<svg width="159" height="36" viewBox="0 0 159 36" fill="none" xmlns="http://www.w3.org/2000/svg">
<g clip-path="url(#clip0_66_39)">
<path d="M54.1648 30.4983H58.4933V8.91024H55.1007V13.4551C55.1007 15.0996 55.13 16.7441 55.1592 18.4784C54.9837 16.774 54.8083 15.2192 54.5743 13.4551L54.0186 8.91024H49.3684V30.4983H52.7317V23.5614C52.7317 21.9169 52.7317 20.2724 52.7025 18.5681C52.8487 20.2425 53.0242 21.8571 53.2582 23.5614L54.1648 30.4983ZM44.104 13.1262C44.221 16.8637 44.3964 20.3023 44.6304 24.279H43.5775C43.8115 20.3023 43.987 16.8637 44.104 13.1262ZM44.9814 30.4983H48.9589L47.0579 8.91024H41.5595L39.6585 30.4983H43.2266L43.3728 27.8671H44.8059L44.9814 30.4983ZM34.8328 13.2458C34.8328 12.7674 34.8913 12.588 35.1837 12.588H35.2715C35.5639 12.588 35.6224 12.7375 35.6224 13.2458V17.4019H39.366V12.8272C39.366 9.68765 38.6348 8.76074 35.8272 8.76074H34.3356C31.5279 8.76074 30.7967 9.68765 30.7967 12.8272V26.6112C30.7967 29.7508 31.5279 30.6478 34.3356 30.6478H35.8272C38.6348 30.6478 39.366 29.7508 39.366 26.6112V21.0498H35.6224V26.1627C35.6224 26.6112 35.5639 26.8205 35.2715 26.8205H35.1837C34.8913 26.8205 34.8328 26.6411 34.8328 26.1627V13.2458ZM26.1465 30.4983H30.0948V8.91024H26.1465V30.4983ZM21.4378 17.1328C21.4378 17.6112 21.3501 17.7906 21.0576 17.7906H20.6189V12.7674H21.0576C21.3501 12.7674 21.4378 12.9169 21.4378 13.4252V17.1328ZM25.3861 23.5614C25.3861 21.289 25.0059 20.1827 23.719 19.7342C24.9767 19.3455 25.3861 18.269 25.3861 15.9667V12.9767C25.3861 9.83715 24.6549 8.91024 21.8473 8.91024H16.6414V30.4983H20.5897V21.6478H20.8236C21.2331 21.6478 21.4378 21.9767 21.4378 22.5747V27.897C21.4378 28.9435 21.4671 29.9601 21.7595 30.4983H25.8541C25.4739 29.6611 25.3861 28.6445 25.3861 27.5681V23.5614ZM13.6874 12.7674H16.2611V8.91024H9.73914V30.4983H13.6874V21.5581H15.6177V17.7009H13.6874V12.7674ZM4.44549 13.1262C4.56248 16.8637 4.73796 20.3023 4.97193 24.279H3.91905C4.12378 20.3023 4.29926 16.8637 4.44549 13.1262ZM5.29365 30.4983H9.27119L7.37016 8.91024H1.90103L0 30.4983H3.56809L3.71433 27.8671H5.14741L5.29365 30.4983Z" fill="#403B3E"/>
<path d="M151.176 26.1627C151.176 26.6112 151.088 26.8205 150.825 26.8205H150.737C150.445 26.8205 150.357 26.6411 150.357 26.1627V22.2159H146.643V26.6112C146.643 29.7508 147.374 30.6478 150.182 30.6478H151.615C154.422 30.6478 155.154 29.7508 155.154 26.6112V24.1594C155.154 21.1993 154.276 20.0332 152.492 18.0896C151.059 16.5647 150.591 15.9667 150.591 14.6212V13.2458C150.591 12.8272 150.679 12.6478 150.971 12.6478H151.03C151.322 12.6478 151.41 12.7973 151.41 13.3056V16.3255H155.124V12.8272C155.124 9.68765 154.393 8.76074 151.585 8.76074H150.152C147.345 8.76074 146.614 9.68765 146.614 12.8272V14.4119C146.614 17.4019 147.491 18.5681 149.275 20.5116C150.708 22.0365 151.176 22.6345 151.176 23.98V26.1627ZM136.816 30.4983H140.764V20.8106C140.881 21.7674 140.998 22.5747 141.086 23.2026L142.168 30.4684H146.321L144.186 19.0465L146.263 8.91024H142.461L141.115 16.2657C140.998 16.9833 140.94 17.3421 140.793 18.3288V8.91024H136.845V30.4983H136.816ZM132.078 26.1627C132.078 26.6112 132.019 26.8205 131.727 26.8205H131.639C131.347 26.8205 131.288 26.6411 131.288 26.1627V13.2458C131.288 12.7674 131.347 12.588 131.639 12.588H131.727C132.019 12.588 132.078 12.7375 132.078 13.2458V26.1627ZM127.282 26.6112C127.282 29.7508 128.013 30.6478 130.82 30.6478H132.546C135.354 30.6478 136.085 29.7508 136.085 26.6112V12.8272C136.085 9.68765 135.354 8.76074 132.546 8.76074H130.82C128.013 8.76074 127.282 9.68765 127.282 12.8272V26.6112ZM122.661 26.1627C122.661 26.6112 122.602 26.8205 122.31 26.8205H122.222C121.929 26.8205 121.871 26.6411 121.871 26.1627V13.2458C121.871 12.7674 121.929 12.588 122.222 12.588H122.31C122.602 12.588 122.661 12.7375 122.661 13.2458V26.1627ZM117.864 26.6112C117.864 29.7508 118.595 30.6478 121.403 30.6478H123.128C125.936 30.6478 126.667 29.7508 126.667 26.6112V12.8272C126.667 9.68765 125.936 8.76074 123.128 8.76074H121.374C118.566 8.76074 117.835 9.68765 117.835 12.8272V26.6112H117.864ZM113.272 16.6245C113.272 17.073 113.185 17.2823 112.892 17.2823H112.453V12.7674H112.892C113.185 12.7674 113.272 12.9169 113.272 13.4252V16.6245ZM112.892 21.0797C113.185 21.0797 113.272 21.2591 113.272 21.7375V26.0132C113.272 26.4617 113.185 26.671 112.892 26.671H112.453V21.0797H112.892ZM108.476 30.4983H113.682C116.49 30.4983 117.221 29.6013 117.221 26.4617V22.9335C117.221 20.691 116.84 19.6146 115.583 19.1661C116.811 18.7475 117.221 17.6411 117.221 15.3986V12.9767C117.221 9.83715 116.49 8.91024 113.682 8.91024H108.476V30.4983Z" fill="#403B3E"/>
<path d="M82.5926 3.3787C78.4103 -0.119636 71.2449 -0.986746 66.3899 1.16608L67.1211 25.7143C71.9176 24.578 78.7613 25.8638 82.6218 32.8006V3.3787H82.5926Z" fill="#D2232A"/>
<path d="M84.4059 3.3787C88.6174 -0.119636 95.7536 -0.986746 100.609 1.16608L99.8774 25.7143C95.0809 24.578 88.2372 25.8638 84.3766 32.8006V3.3787H84.4059Z" fill="#D2232A"/>
<path d="M64.8984 7.86377C63.4653 8.16277 62.0907 8.58138 60.8038 9.05978L62.4124 31.1561C67.4428 29.691 75.8074 28.9734 81.8322 36C80.984 31.9933 77.8839 29.2126 75.1932 28.0465C72.7657 26.9701 69.958 26.7309 67.3843 27.3289L65.4833 27.7774L64.8984 7.86377Z" fill="#403B3E"/>
<path d="M102.1 7.86377C103.533 8.16277 104.908 8.58138 106.195 9.05978L104.586 31.1561C99.5557 29.691 91.1911 28.9734 85.1663 36C86.0145 31.9933 89.1146 29.2126 91.8053 28.0465C94.2328 26.9701 97.0405 26.7309 99.6142 27.3289L101.515 27.7774L102.1 7.86377Z" fill="#403B3E"/>
<path d="M96.28 15.1594C96.3093 15.1893 96.3093 15.1295 96.3093 15.0996H96.28C96.28 15.0697 96.28 15.0398 96.28 15.0099L96.2508 15.0398C96.2508 15.0697 96.2215 15.0996 96.28 15.1594L96.2508 15.1295L96.28 15.1594ZM91.0741 14.1129H91.1034H91.0741ZM99.2047 12.1992L99.1755 12.1693V12.1992H99.1462C99.2047 12.1693 99.1462 12.1095 99.2047 12.0497C99.1462 12.0198 99.2339 11.9301 99.2632 11.9002C99.2339 11.8703 99.1754 11.8404 99.1462 11.8404C99.117 11.8404 99.0877 11.8703 99.0585 11.9002C99.0292 11.9301 99 11.9301 98.9707 11.9002H98.9122L98.8537 11.96C98.766 11.96 98.7075 11.9301 98.6198 11.96C98.5905 11.96 98.5613 11.96 98.532 11.96C98.5028 11.96 98.4735 11.9301 98.4443 11.9301C98.415 11.9301 98.3565 11.96 98.3273 11.9899C98.2396 12.0198 98.2396 11.96 98.1518 11.96C98.1226 11.96 98.0641 11.96 98.0348 11.9899C97.9763 12.0198 97.8886 12.0497 97.8301 11.9899C97.7716 11.96 97.6839 11.8404 97.7131 11.7806L97.6839 11.7507L97.6546 11.7208C97.6254 11.7208 97.5669 11.6909 97.5669 11.7208L97.5376 11.6909C97.5669 11.7208 97.5669 11.6909 97.5961 11.661H97.6546C97.7424 11.6311 97.7131 11.6012 97.7131 11.5414C97.6839 11.5115 97.6839 11.4816 97.6546 11.4517L97.6254 11.4816C97.5961 11.4816 97.5669 11.4218 97.5669 11.362C97.5084 11.3919 97.5376 11.2723 97.5084 11.2723V11.3022L97.4791 11.2424L97.4207 11.1826C97.3914 11.1228 97.3329 11.0032 97.2744 11.0032V10.9733L97.2452 10.9434H97.2159C97.1867 10.9733 97.1574 10.9135 97.1574 10.9135C97.1574 10.8836 97.1574 10.8836 97.1282 10.8238C97.0989 10.8238 97.0989 10.8537 97.0989 10.8836C97.1282 10.8836 97.0989 10.9434 97.0697 10.9135V10.8537C97.0697 10.8238 97.0404 10.8537 97.0404 10.8238C97.0404 10.7939 97.0112 10.764 97.0112 10.7042C97.0112 10.6743 97.0112 10.6145 97.0112 10.5846C97.0112 10.4949 96.982 10.3454 96.9527 10.2557L96.9235 10.2258H96.8942L96.9235 10.1959L96.8942 10.166C96.865 10.1361 96.865 10.1062 96.8357 10.1062C96.8357 10.0763 96.8065 10.1062 96.8065 10.0763L96.7772 10.0165C96.7772 9.95672 96.7772 9.89692 96.7772 9.83712V9.74742V9.68762C96.7772 9.62782 96.7772 9.56802 96.7772 9.53812L96.8065 9.56802H96.7772C96.8065 9.62782 96.7772 9.53812 96.7772 9.50822C96.748 9.44841 96.7772 9.41851 96.748 9.35871C96.7772 9.32881 96.6895 9.26901 96.6895 9.23911C96.6602 9.20921 96.6602 9.20921 96.631 9.17931L96.6017 9.11951C96.5725 9.08961 96.5725 8.99991 96.5725 8.94011C96.5725 8.88031 96.5725 8.88031 96.631 8.91021C96.631 8.88031 96.6017 8.88031 96.5725 8.85041C96.514 8.79061 96.514 8.70091 96.4848 8.64111C96.4555 8.5215 96.4263 8.4318 96.397 8.3122L96.3678 8.2524V8.1926V8.1328C96.3678 8.1029 96.3678 8.1029 96.3385 8.073L96.3093 8.0132V7.9833V7.9534L96.3385 7.9833C96.3385 7.9534 96.3093 7.9235 96.28 7.8936C96.2508 7.8637 96.2508 7.8338 96.2215 7.8039C96.2215 7.774 96.2215 7.7441 96.1923 7.7142V7.6544C96.1923 7.59459 96.1045 7.56469 96.1923 7.50489L96.2215 7.47499V7.44509C96.2215 7.47499 96.2215 7.53479 96.2215 7.56469C96.2215 7.59459 96.2508 7.62449 96.28 7.6544C96.3093 7.6843 96.28 7.7441 96.3093 7.774L96.3678 7.8936C96.397 7.9534 96.4263 7.9534 96.4555 8.0132C96.4848 7.9833 96.4848 7.9534 96.514 7.9235C96.514 7.8637 96.5725 7.8338 96.5725 7.8039C96.6017 7.774 96.631 7.7142 96.631 7.6843C96.6602 7.62449 96.631 7.47499 96.6017 7.41519C96.6017 7.35539 96.6017 7.29559 96.5725 7.23579C96.5433 7.26569 96.4848 7.26569 96.4555 7.26569C96.4263 7.26569 96.4263 7.23579 96.397 7.26569H96.3678H96.3385V7.23579V7.20589L96.3093 7.23579H96.3385H96.3093H96.28H96.3385C96.2508 7.26569 96.28 7.20589 96.1923 7.17599V7.20589H96.163H96.1338L96.1046 7.17599H96.0753H96.1046V7.14609L96.1338 7.20589L96.163 7.23579L96.1046 7.17599C96.0753 7.17599 96.0461 7.17599 96.0168 7.17599C95.9876 7.14609 95.9583 7.11619 95.9291 7.14609L95.9583 7.17599H95.8706H95.8413C95.8706 7.17599 95.8998 7.14609 95.9291 7.14609C95.8998 7.14609 95.8413 7.17599 95.8121 7.14609V7.17599L95.7828 7.23579H95.8121H95.7828L95.7536 7.20589L95.7243 7.23579C95.6951 7.26569 95.6074 7.29559 95.5781 7.29559C95.5196 7.29559 95.4904 7.23579 95.4319 7.20589C95.4026 7.20589 95.3441 7.17599 95.3149 7.17599V7.14609H95.2564L95.1979 7.11619C95.1394 7.08629 95.0517 7.05639 94.9639 7.02649C94.9054 6.99659 94.8469 7.02649 94.7885 6.99659L94.7592 6.87699C94.73 6.84709 94.5545 6.84709 94.5545 6.81719C94.5252 6.78729 94.4667 6.78729 94.4082 6.75739C94.4082 6.72748 94.3498 6.72748 94.379 6.69758C94.379 6.63778 94.379 6.66768 94.3498 6.60788L94.2328 6.51818H94.1743H94.145L94.0865 6.54808C94.0573 6.54808 94.028 6.51818 93.9695 6.54808C93.9403 6.57798 93.8818 6.57798 93.8526 6.60788C93.7941 6.63778 93.7356 6.69758 93.7356 6.75739C93.7356 6.81719 93.7648 6.87699 93.7648 6.93679C93.7356 7.05639 93.5016 7.14609 93.4431 7.02649C93.3846 6.90689 93.2384 6.84709 93.1506 6.78729C93.0629 6.75739 92.9459 6.75739 92.9167 6.63778C92.8874 6.57798 92.8874 6.51818 92.8874 6.45838C92.8874 6.39858 92.7704 6.39858 92.7412 6.36868C92.6827 6.33878 92.6534 6.27898 92.595 6.27898C92.5657 6.27898 92.5365 6.24908 92.5072 6.24908C92.478 6.24908 92.4487 6.27898 92.4195 6.24908C92.3317 6.24908 92.3025 6.18928 92.2147 6.12948L92.244 6.15938C92.2147 6.15938 92.1855 6.12948 92.1563 6.09958V6.12948C92.127 6.12948 92.0978 6.12948 92.0978 6.09958H92.127C92.0685 6.06968 92.127 6.03978 92.0978 6.00988C92.0685 5.97998 92.0685 6.06968 92.0393 6.03978V6.00988H91.9808C91.9515 5.97998 91.893 5.92018 91.9223 5.89028C91.9223 5.86038 91.9515 5.86038 91.9808 5.83047L92.0685 5.80057L92.127 5.74077L92.1855 5.65107V5.59127V5.56137C92.1563 5.53147 92.0978 5.50157 92.0978 5.44177C92.0978 5.41187 92.0978 5.38197 92.127 5.35207C92.1563 5.35207 92.1855 5.35207 92.1855 5.32217L92.244 5.26237V5.20257C92.244 5.17267 92.244 5.17267 92.2147 5.20257C92.1855 5.20257 92.0978 5.29227 92.0978 5.23247H92.0685C92.127 5.23247 92.0393 5.17267 92.0978 5.17267L92.0685 5.14277H92.0978C92.0685 5.11287 92.0393 5.11287 92.01 5.11287C92.0393 5.14277 92.01 5.14277 92.01 5.11287V5.08297C91.9808 5.08297 91.9223 5.08297 91.8638 5.08297C91.8053 5.11287 91.776 5.14277 91.7176 5.14277H91.6883H91.6298C91.6006 5.14277 91.5421 5.14277 91.5713 5.11287C91.5421 5.11287 91.4836 5.08297 91.4543 5.08297C91.5128 5.14277 91.3958 5.11287 91.3958 5.11287L91.3373 5.08297L91.3081 5.05307L91.2789 5.08297C91.2496 5.11287 91.1911 5.08297 91.1619 5.08297C91.1326 5.08297 91.0156 5.14277 91.0449 5.05307C90.9864 5.02317 90.9279 4.99327 90.8694 4.99327C90.8402 4.99327 90.8109 4.96337 90.7817 4.99327H90.6939H90.6647H90.6062C90.5769 4.99327 90.5477 5.02317 90.5184 5.02317H90.4892C90.4015 5.02317 90.3137 5.02317 90.226 5.02317C90.1675 5.02317 90.0797 5.05307 90.0505 5.08297C90.0212 5.11287 89.992 5.17267 89.9628 5.14277C89.9335 5.11287 89.9335 5.11287 89.9043 5.11287C89.875 5.17267 89.8458 5.11287 89.8165 5.14277L89.758 5.17267L89.6995 5.23247L89.6118 5.26237C89.5825 5.26237 89.5533 5.29227 89.5241 5.26237L89.4656 5.23247C89.4363 5.23247 89.4071 5.23247 89.3778 5.20257L89.4071 5.23247C89.3778 5.23247 89.3778 5.17267 89.3778 5.14277C89.3486 5.17267 89.3193 5.20257 89.2608 5.17267L89.2023 5.14277H89.1731C89.0854 5.14277 89.0561 5.14277 88.9976 5.08297C88.9684 5.05307 88.9391 5.02317 88.9391 4.96337L88.9099 4.90356L88.7929 4.93346C88.7344 4.96337 88.7052 5.08297 88.6759 5.14277C88.6467 5.20257 88.5589 5.32217 88.5004 5.35207C88.4419 5.38197 88.3542 5.41187 88.2957 5.41187C88.2372 5.41187 88.208 5.44177 88.1495 5.47167C88.1202 5.50157 88.0032 5.56137 88.0032 5.62117C87.974 5.65107 88.0032 5.71087 87.9447 5.74077C87.9155 5.77067 87.8862 5.80057 87.857 5.83047C87.8277 5.86038 87.8277 5.95008 87.8277 5.97998L87.7985 6.00988L87.8277 6.06968C87.857 6.15938 87.7108 6.27898 87.6523 6.30888C87.5938 6.36868 87.5353 6.36868 87.4768 6.39858C87.4183 6.42848 87.4183 6.45838 87.3598 6.48828C87.3306 6.48828 87.3013 6.51818 87.2428 6.51818C87.2136 6.51818 87.1258 6.51818 87.0966 6.51818C87.0673 6.54808 87.0381 6.57798 87.0088 6.63778C86.9796 6.69758 86.9503 6.75739 86.8919 6.78729C86.8334 6.81719 86.7749 6.81719 86.7456 6.87699C86.7164 6.90689 86.6871 6.96669 86.6871 6.99659C86.6579 7.05639 86.6579 7.08629 86.6286 7.14609C86.5994 7.20589 86.5409 7.20589 86.5116 7.26569C86.4532 7.29559 86.3947 7.32549 86.3654 7.38529L86.4239 7.32549C86.4239 7.38529 86.3362 7.44509 86.3069 7.50489L86.2777 7.56469C86.2484 7.59459 86.2484 7.62449 86.2192 7.6544H86.1607C86.1022 7.6843 86.0145 7.8936 86.0437 7.9534C86.0437 7.9235 86.0729 7.8936 86.0729 7.8637L86.1022 7.9235C86.1022 7.9534 86.1022 7.9833 86.1314 8.0132V7.9833L86.1607 8.0132L86.1899 8.1328L86.1607 8.1926C86.1607 8.2225 86.1022 8.2524 86.1022 8.2823L86.1314 8.2524V8.2823H86.1607L86.1022 8.3122L86.1314 8.3421C86.1607 8.372 86.1607 8.4019 86.1607 8.4617C86.1607 8.58131 86.1607 8.70091 86.0729 8.82051C86.0145 8.91021 86.0145 8.97001 85.9852 9.05971C85.956 9.14941 85.839 9.23911 85.7512 9.23911L85.7805 9.26901C85.839 9.26901 85.8975 9.41851 85.8682 9.47832L85.8975 9.41851H85.8682L85.9267 9.38861H85.956L85.8975 9.41851H85.8682L85.839 9.44841L85.8975 9.41851V9.44841C85.8682 9.44841 85.8682 9.50822 85.8975 9.47832C85.8682 9.50822 85.8975 9.53812 85.8682 9.56802H85.8975C85.9267 9.53812 85.9852 9.56802 86.0437 9.56802H86.1022C86.0729 9.56802 85.8975 9.50821 85.9267 9.59792H85.8682L85.839 9.53812H85.8097C85.7512 9.56802 85.7805 9.62782 85.7512 9.68762V9.71752H85.7805C85.7512 9.74742 85.7805 9.74742 85.8097 9.71752V9.74742V9.77732V9.74742C85.8097 9.77732 85.8975 9.77732 85.8975 9.74742C85.8975 9.77732 85.9267 9.77732 85.956 9.77732C86.0145 9.80722 85.9852 9.74742 86.0437 9.74742C86.0145 9.74742 86.0145 9.80722 85.956 9.77732C85.8975 9.77732 85.839 9.77732 85.8097 9.74742V9.71752C85.7512 9.74742 85.7512 9.74742 85.7805 9.77732C85.8097 9.80722 85.8097 9.83712 85.839 9.77732L85.8975 9.74742L85.839 9.77732V9.80722C85.8682 9.83712 85.8682 9.83712 85.8975 9.83712C85.9267 9.83712 85.9267 9.80722 85.956 9.83712L85.8975 9.86702L85.9267 9.83712L85.956 9.80722L85.9267 9.83712C85.956 9.83712 85.9852 9.80722 86.0145 9.80722H86.0729H86.1022V9.83712L86.0729 9.80722C86.0437 9.83712 85.9852 9.77732 85.9852 9.83712V9.86702V9.83712H86.0145H85.9852H85.956H85.9267V9.86702L85.956 9.83712V9.86702H85.9852C85.956 9.86702 85.9267 9.92682 85.9852 9.92682V9.89692C85.956 9.95672 85.9852 9.92682 86.0145 9.89692V9.92682C85.9852 9.92682 85.9852 9.95672 85.9852 9.95672H86.0145V9.98662V9.95672H86.0437H86.0729L86.0437 9.98662H86.0729V10.0165L86.1022 9.98662V10.0165L86.1607 9.98662L86.1314 10.0464C86.1022 10.0763 86.1022 10.0763 86.1314 10.0763V10.1361H86.1607H86.1899C86.1607 10.166 86.1899 10.166 86.2192 10.1361H86.1899C86.1607 10.1361 86.2192 10.2258 86.2484 10.166C86.2484 10.1959 86.2192 10.2258 86.2484 10.1959H86.2777L86.2484 10.2557H86.2777H86.3069V10.2856V10.3155H86.3362V10.3454V10.3155H86.3654C86.3362 10.3155 86.3069 10.3454 86.3362 10.3454H86.3654H86.3362H86.3654C86.3362 10.3454 86.3069 10.3454 86.3069 10.3753C86.3069 10.4052 86.3362 10.4052 86.3069 10.3753H86.3362H86.3947V10.4052L86.3362 10.4351L86.3654 10.465L86.3069 10.4351C86.3069 10.465 86.3362 10.465 86.3069 10.4949H86.3362V10.5248V10.5547H86.3069L86.3362 10.5846C86.3069 10.6145 86.3654 10.6145 86.3947 10.6145L86.3654 10.6444C86.3654 10.6743 86.3947 10.6743 86.4239 10.6743C86.4239 10.6743 86.3362 10.6743 86.3654 10.7042H86.3362C86.3947 10.7341 86.4532 10.7939 86.5116 10.8238L86.5409 10.8836C86.5701 10.9135 86.6286 10.9434 86.6579 10.9733V11.0032L86.7456 11.063V11.0331L86.7749 11.063C86.8041 11.0929 86.8919 11.1826 86.8919 11.2125C86.9211 11.2424 86.9503 11.3022 87.0088 11.3321C87.0673 11.3919 87.1551 11.4517 87.2136 11.4816C87.2721 11.5115 87.3013 11.4816 87.389 11.4816C87.4768 11.4517 87.5938 11.4517 87.6815 11.4218C87.7108 11.4218 87.7693 11.4218 87.7985 11.4218L87.7693 11.3919H87.74H87.7108H87.7693V11.4218C87.8277 11.4218 87.9155 11.4218 87.974 11.4517C87.9447 11.4517 87.8862 11.4517 87.857 11.4517H87.7985L87.8277 11.4218H87.857H87.8862H87.9155C87.9447 11.4218 87.974 11.4218 88.0325 11.4517H88.0617L88.091 11.4816V11.4517L88.1202 11.4816H88.091H88.0617L88.1202 11.5115L88.208 11.5414H88.2372C88.2372 11.5115 88.2664 11.5414 88.2664 11.5414C88.2664 11.5414 88.2372 11.5713 88.2664 11.5713H88.3249C88.2957 11.6012 88.2664 11.5713 88.2372 11.5713C88.2957 11.6012 88.3834 11.6311 88.4419 11.661C88.4712 11.6909 88.4712 11.6909 88.5004 11.6909C88.5589 11.661 88.6174 11.661 88.6759 11.661C88.7052 11.661 88.7344 11.661 88.7636 11.661C88.7929 11.661 88.8514 11.6311 88.8806 11.6311C88.9391 11.6012 88.9976 11.661 89.0561 11.6311L89.0854 11.6012L89.1438 11.5713C89.2608 11.5414 89.4071 11.5713 89.5533 11.6012L89.5825 11.5713C89.5825 11.6012 89.641 11.5713 89.6703 11.5713C89.641 11.5713 89.6118 11.5713 89.5825 11.6012C89.6118 11.6311 89.6995 11.6311 89.7288 11.6311C89.758 11.6311 89.7873 11.661 89.8165 11.6909C89.8458 11.7208 89.8458 11.7507 89.875 11.7806C89.9043 11.8105 89.9043 11.8105 89.9335 11.7806L89.9043 11.8105C89.875 11.8105 89.9043 11.8703 89.9335 11.8404C89.9043 11.8703 89.9335 11.8404 89.9628 11.8703H89.9043C89.875 11.8703 89.9043 11.9002 89.9335 11.9002H89.992L89.9628 11.9301H89.9335C89.9043 11.9002 89.9043 11.96 89.9335 11.96H89.9043V12.0198V12.0497L89.9335 12.1095H89.9628L89.992 12.1394V12.1693V12.1394L90.0212 12.1693V12.1394V12.1095V12.1394H90.0505C89.992 12.1693 90.109 12.1992 90.109 12.1394C90.109 12.1693 90.1382 12.1992 90.1382 12.1394V12.1693V12.1394C90.1382 12.1693 90.109 12.1992 90.1675 12.1992C90.1675 12.1693 90.1675 12.1394 90.1675 12.1095V12.1992C90.1967 12.2291 90.1967 12.1693 90.1967 12.1693V12.1394L90.226 12.1693V12.1394V12.1693V12.1992V12.1394L90.2552 12.1992C90.2845 12.1992 90.3137 12.2291 90.3137 12.1693C90.2845 12.1992 90.3137 12.1992 90.343 12.2291C90.3722 12.2291 90.4599 12.259 90.4599 12.2291L90.4307 12.1394L90.4599 12.1693V12.1992L90.4892 12.1693L90.4599 12.1992V12.2291H90.4892V12.1693L90.5184 12.2291V12.1992V12.2291V12.3188L90.5477 12.3487H90.5769L90.6062 12.3786V12.3487H90.6354V12.3188C90.6354 12.3487 90.6647 12.3487 90.6939 12.3188C90.6647 12.3188 90.6354 12.3487 90.6939 12.3487H90.6647L90.6354 12.3188V12.3487L90.6062 12.3188C90.6062 12.3487 90.6062 12.3786 90.6647 12.3786H90.6354L90.6939 12.4384C90.6647 12.4982 90.6354 12.5879 90.6354 12.6777L90.6062 12.7375C90.6062 12.7674 90.5477 12.7674 90.6062 12.7674C90.5769 12.7674 90.5477 12.7973 90.5184 12.8272L90.5769 12.8571L90.6062 12.887V12.9169C90.6062 12.887 90.5769 12.887 90.5477 12.9169V13.0066V12.9767H90.5184C90.5477 12.9767 90.5184 12.9468 90.5184 12.9767C90.4892 13.0066 90.5184 12.9767 90.5184 13.0365C90.5184 13.0664 90.5769 13.0963 90.6354 13.0963H90.5769V13.1262L90.5477 13.0963V13.0664V13.0963L90.5184 13.0664V13.0365L90.4892 13.1262C90.4892 13.1561 90.4307 13.2159 90.4307 13.2458L90.4015 13.2757V13.2458L90.3722 13.186C90.3722 13.2159 90.3722 13.2757 90.4015 13.2757L90.4307 13.3355C90.4307 13.3654 90.4892 13.4252 90.4892 13.3654L90.4599 13.4252C90.4892 13.4551 90.4892 13.3953 90.5184 13.4551H90.4892H90.4599C90.4599 13.4252 90.4307 13.3953 90.4307 13.3654L90.4892 13.5149V13.5448L90.5184 13.6046L90.4892 13.5747L90.5184 13.6046L90.5477 13.6943V13.7242C90.5477 13.7541 90.5769 13.7242 90.6062 13.7541H90.6354L90.6647 13.784H90.6354L90.6062 13.7541H90.5769C90.6062 13.8139 90.6647 13.8737 90.7232 13.9335C90.7524 13.9634 90.7817 14.0232 90.8109 14.0531C90.8402 14.083 90.8694 14.1428 90.8986 14.1727C90.9279 14.2026 90.9279 14.2325 90.9571 14.2624V14.2923L91.0156 14.3521H90.9864C91.0156 14.382 91.0156 14.4418 91.0156 14.4717C91.0156 14.5016 91.0156 14.5315 91.0449 14.5614H91.1034L91.1326 14.5315C91.1619 14.5315 91.1911 14.5614 91.2204 14.5614C91.1619 14.5614 91.1034 14.5913 91.0449 14.5913C91.0156 14.6212 91.1034 14.7707 91.1034 14.7707C91.0741 14.8604 91.1326 14.9501 91.1326 15.0398C91.1619 15.0996 91.1619 15.1594 91.1034 15.1893H91.1326L91.0741 15.2491L91.1034 15.2192C91.0449 15.2192 91.0741 15.279 91.1034 15.3089V15.3687C91.1034 15.4285 91.1619 15.4883 91.1619 15.578C91.1911 15.6677 91.1619 15.877 91.0741 15.9368L91.0449 15.9667H90.9864C90.9279 15.9966 90.9279 16.0265 90.8986 16.0564L90.8402 16.0863C90.8109 16.1162 90.8109 16.1461 90.8109 16.176L90.7817 16.2358C90.7817 16.2657 90.7524 16.2956 90.7524 16.3255C90.7524 16.3554 90.7232 16.3853 90.6939 16.4152C90.6939 16.4451 90.6647 16.475 90.6647 16.5049C90.6354 16.5348 90.6062 16.5348 90.6062 16.5647V16.6544C90.6062 16.6843 90.6062 16.7441 90.5769 16.774C90.5477 16.8936 90.5184 17.0132 90.5477 17.1029C90.5769 17.1627 90.6062 17.1926 90.6062 17.2524C90.6354 17.3122 90.6354 17.3421 90.6647 17.4019C90.6939 17.5215 90.7232 17.6411 90.7817 17.7607C90.8109 17.8205 90.8109 17.8803 90.8402 17.9401C90.8694 17.9999 90.8986 18.0896 90.8694 18.1494L90.8402 18.1793V18.1494C90.8109 18.1793 90.8402 18.2092 90.8402 18.269C90.8109 18.2989 90.8402 18.3587 90.8402 18.3886C90.8402 18.4185 90.8109 18.4185 90.8109 18.4484C90.8109 18.5082 90.8694 18.5979 90.8402 18.6577C90.8402 18.7175 90.8109 18.7773 90.8109 18.8371C90.8109 18.867 90.8109 18.8969 90.8109 18.9268C90.8109 18.9567 90.8694 18.9866 90.8402 19.0165C90.8109 19.0464 90.8402 19.1959 90.8694 19.2258C90.8694 19.2856 90.9864 19.5248 91.0449 19.4949C91.0449 19.5547 91.1034 19.6145 91.1034 19.6743C91.1326 19.764 91.1326 19.8836 91.1619 19.9733C91.1911 20.063 91.2496 20.1527 91.2496 20.2424C91.2496 20.2723 91.2789 20.362 91.2496 20.3919L91.2204 20.4517C91.1911 20.5115 91.1619 20.4517 91.1619 20.4816L91.1326 20.5115V20.5713L91.1619 20.6311L91.1326 20.6012C91.1619 20.6311 91.1619 20.6909 91.1911 20.7507C91.2204 20.7806 91.1911 20.8105 91.1911 20.8105L91.1619 20.8404V20.9002V20.8404C91.1911 20.8105 91.2204 20.8404 91.2204 20.8703L91.1911 20.9301H91.2496C91.2204 20.96 91.3373 20.96 91.2789 21.0198C91.3081 21.0198 91.3081 21.0497 91.3373 21.0796L91.4251 21.1095L91.4836 21.0796L91.5128 21.0497C91.5421 21.0497 91.6006 21.0796 91.5713 21.0497C91.6006 21.0497 91.6298 21.0497 91.6591 21.0796H91.7176C91.7468 21.0796 91.7468 21.1095 91.8053 21.0796C91.8345 21.0796 91.8053 21.0497 91.8638 21.0497C91.8638 21.0198 91.9808 21.0198 91.9808 21.0497H92.01L92.0393 21.0796V21.0497C92.0685 21.0796 92.0978 21.0796 92.127 21.0796C92.0978 21.0198 92.244 21.0796 92.2732 21.1095C92.3025 21.1394 92.361 21.1693 92.3902 21.1693L92.4195 21.1394C92.4195 21.1095 92.478 21.1394 92.5072 21.1394L92.5657 21.1693C92.595 21.1693 92.5657 21.1693 92.5657 21.1394C92.595 21.0796 92.6534 21.1095 92.7119 21.1095C92.7412 21.1095 92.7997 21.1095 92.8582 21.0796C92.9167 21.0497 93.0044 21.0198 93.0629 20.9899C93.1214 20.96 93.1799 20.9002 93.2384 20.8703C93.2969 20.8404 93.3554 20.7507 93.4139 20.7208C93.4723 20.6909 93.5308 20.661 93.5893 20.6012C93.6771 20.5414 93.7356 20.4218 93.7941 20.362C93.8233 20.3321 93.8526 20.2723 93.8818 20.2424C93.9111 20.2125 93.9695 20.1826 93.9695 20.1527L94.028 20.1228C94.0573 20.1228 94.145 20.0929 94.1158 20.0331C94.1743 19.9733 94.2035 19.8537 94.2328 19.7939C94.262 19.7042 94.2913 19.6444 94.3205 19.5547L94.2913 19.5846L94.262 19.5547L94.2328 19.4949L94.2913 19.465C94.2913 19.4052 94.3497 19.4052 94.4082 19.3753H94.4375C94.5545 19.3454 94.7007 19.3155 94.8177 19.2856C94.8469 19.2856 94.9639 19.166 94.9347 19.1062H94.9054V19.1361V19.0763V19.1062C94.9347 19.0464 94.9639 18.9866 94.9639 18.9268C94.9639 18.867 94.9932 18.8072 94.9932 18.7474V18.7773V18.7175L94.9639 18.7474L94.9347 18.8072C94.9054 18.7773 94.9639 18.7175 94.9347 18.6577C94.9347 18.6278 94.9054 18.5381 94.9347 18.5082L94.9054 18.5381V18.4783V18.4484C94.9054 18.4185 94.9054 18.3886 94.8762 18.3886L94.8469 18.3587V18.3288V18.269C94.8762 18.2989 94.8762 18.2092 94.8762 18.2092L94.8469 18.1494L94.8762 18.1793C94.9054 18.2092 94.8762 18.2092 94.9347 18.2092C94.9932 18.2092 95.0517 18.1195 95.0809 18.0896L95.1394 18.0597H95.1687H95.1979L95.2272 18.0896V18.0597C95.2272 18.0896 95.2564 18.0896 95.2564 18.0896C95.2856 18.0597 95.3149 18.0298 95.3734 17.9999C95.4026 17.9999 95.4319 17.97 95.4026 17.9401L95.4319 17.97C95.4611 17.9401 95.4904 17.9102 95.5489 17.9102C95.5781 17.9102 95.6951 17.8803 95.6951 17.8504C95.6951 17.9102 95.8121 17.8504 95.8121 17.8504H95.8998C95.9291 17.8205 96.0461 17.8205 96.0461 17.7906H96.0753C96.0461 17.7607 96.1338 17.7607 96.1338 17.7009H96.1046C96.1338 17.671 96.1923 17.6411 96.2215 17.6112C96.2508 17.5813 96.2508 17.5514 96.2215 17.5514L96.2508 17.5215V17.4916H96.28L96.2508 17.4617C96.28 17.4916 96.3093 17.4318 96.3093 17.4019C96.3385 17.372 96.3093 17.372 96.28 17.4019V17.3421C96.3093 17.3421 96.3093 17.2823 96.28 17.3122V17.2823C96.3093 17.2524 96.28 17.1627 96.3093 17.1328V17.1029C96.3385 17.073 96.3385 17.0431 96.3093 17.0431V17.0132V16.9833C96.3093 16.9534 96.28 16.9534 96.3093 16.9235L96.28 16.8936L96.3093 16.8039C96.28 16.774 96.3385 16.7142 96.28 16.6843L96.3385 16.6245L96.3678 16.5946H96.3385L96.3678 16.5647L96.3385 16.5049L96.3093 16.475V16.4451L96.28 16.4152H96.2508L96.2215 16.3853V16.4152C96.2215 16.3853 96.1923 16.3554 96.163 16.3554L96.2215 15.8471V15.8172C96.2215 15.8172 96.2215 15.7574 96.1923 15.7574C96.2215 15.7574 96.2215 15.6677 96.1923 15.6976V15.6378H96.2215C96.1923 15.578 96.1923 15.5481 96.1923 15.4883L96.2215 15.4285L96.1923 15.3986L96.163 15.4285L96.1923 15.3388C96.2215 15.3089 96.28 15.2491 96.1923 15.2491V15.2192L96.1338 15.1594C96.0461 15.1295 96.163 14.9501 96.1923 14.9202V14.8903V14.8604V14.8903V14.8604V14.8305H96.2215H96.2508C96.2508 14.8006 96.3385 14.7408 96.28 14.7408H96.3093V14.7707V14.7408C96.3385 14.7707 96.3385 14.681 96.3385 14.681C96.3678 14.7109 96.3678 14.6511 96.397 14.6511C96.4263 14.6511 96.4263 14.5913 96.4555 14.5913C96.4263 14.5913 96.4555 14.5315 96.514 14.5016C96.5433 14.5016 96.631 14.5016 96.6017 14.4717H96.631V14.4119V14.4418L96.6602 14.4119C96.631 14.4418 96.6895 14.4418 96.6895 14.4119C96.7187 14.4418 96.8357 14.3222 96.8357 14.2923L96.865 14.2325V14.2624L96.8942 14.2325C96.9235 14.2325 96.9527 14.1727 96.982 14.1727C97.0112 14.1428 97.0697 14.1129 97.0989 14.083C97.1574 14.0232 97.2452 13.9933 97.3037 13.9335C97.3914 13.8438 97.5669 13.8139 97.6839 13.7541C97.8301 13.6943 97.9178 13.6046 98.0348 13.5149C98.1226 13.4551 98.1811 13.3654 98.2688 13.3056C98.3273 13.2458 98.415 13.186 98.4735 13.0963L98.5028 13.0365C98.532 13.0066 98.5613 12.9767 98.5905 12.9169C98.6198 12.887 98.649 12.8272 98.6783 12.7973C98.7075 12.7674 98.7367 12.7375 98.7952 12.6777L98.8537 12.5879C98.883 12.558 98.9122 12.5281 98.9415 12.4982C98.9707 12.4683 98.9707 12.4085 98.9707 12.3786C98.9707 12.3487 98.9707 12.2889 99.0292 12.2889C99.1755 12.1992 99.2047 12.2291 99.2047 12.1992ZM94.9639 18.1195L94.9347 18.1793L94.9639 18.1195ZM96.3678 14.9501L96.4263 14.8903V14.8305L96.397 14.8006V14.8305V14.8604V14.8903H96.3678H96.397L96.3678 14.9501ZM97.7716 16.8637V16.8936C97.8009 16.8637 97.7716 16.8039 97.7716 16.8637ZM96.3093 15.4584V15.4285V15.4584L96.2508 15.4883L96.3093 15.4584ZM96.8942 16.5049H96.9235H96.8942ZM97.9763 17.6112C97.9471 17.6411 97.9471 17.6411 97.9471 17.671L97.9763 17.6112ZM98.1518 17.3421C98.0933 17.2225 98.1226 17.1029 98.1226 16.9833C98.1226 16.9235 98.1226 16.8338 98.0933 16.8039H98.0641C98.0641 16.774 98.0348 16.774 98.0641 16.7441L98.0348 16.7142H98.0056V16.6843H97.9763V16.6544L98.0056 16.6843C98.0056 16.6544 98.0056 16.6245 97.9763 16.6544H97.9471H97.9763L97.9178 16.6843L97.8886 16.7142L97.8594 16.6843C97.8886 16.7142 97.8886 16.7441 97.8886 16.8039C97.8886 16.8338 97.8301 16.9534 97.8009 16.8637V16.8936H97.7716C97.7716 16.9235 97.7716 16.9534 97.7424 16.9235L97.7131 16.8637V16.8338L97.6839 16.8637V16.9235H97.6546C97.6839 16.9534 97.6546 16.9833 97.6546 16.9833V16.9235C97.6839 16.9534 97.6254 16.9534 97.6254 16.9534V17.0132C97.6546 17.0132 97.6839 17.0431 97.6546 17.073C97.6546 17.0431 97.6546 17.0431 97.6546 17.0431L97.6254 17.0132L97.5376 17.1029C97.5084 17.1029 97.5669 17.0431 97.5376 17.0132L97.5084 17.0431H97.5376C97.5084 17.073 97.4499 17.1029 97.4791 17.1328L97.5084 17.1627L97.4499 17.1926C97.4499 17.1627 97.4791 17.1627 97.4791 17.1328C97.4499 17.1029 97.4499 17.1328 97.3914 17.1328H97.3622C97.3329 17.1328 97.3329 17.1627 97.3037 17.1926L97.3329 17.2225C97.3329 17.2225 97.3329 17.1029 97.2744 17.1627V17.1926C97.2159 17.1627 97.2159 17.1627 97.1867 17.2225V17.1926C97.1574 17.1926 97.1282 17.2524 97.1282 17.1627C97.0697 17.1627 97.0697 17.1926 97.0404 17.1926C96.9235 17.1926 96.982 17.1926 96.9527 17.2524C96.9527 17.3122 96.865 17.372 96.8357 17.4019C96.8065 17.4318 96.8357 17.4916 96.8065 17.5514C96.8065 17.6112 96.8357 17.671 96.8065 17.7607C96.8065 17.7906 96.8065 17.8205 96.8357 17.8504C96.865 17.8803 96.8357 17.9102 96.8357 17.9102V17.97C96.8065 17.9999 96.7772 18.0298 96.748 18.0597L96.7187 18.1195L96.6602 18.2092L96.6017 18.2391C96.6017 18.269 96.5725 18.2989 96.5725 18.3288L96.5433 18.3886L96.514 18.4783C96.4848 18.4783 96.514 18.5979 96.514 18.6278C96.5433 18.6876 96.5725 18.7474 96.5433 18.7773L96.514 18.8072V18.867C96.514 18.9268 96.514 18.9268 96.5433 18.9866C96.5433 19.0165 96.5433 19.0763 96.5725 19.0763L96.631 19.1361L96.6017 19.1062C96.6017 19.1361 96.631 19.1361 96.6602 19.166C96.6895 19.166 96.6895 19.1959 96.7187 19.2258C96.7772 19.2856 96.8065 19.2557 96.865 19.2258C96.9527 19.1959 97.0112 19.2258 97.0697 19.1959L97.1574 19.1361C97.1867 19.0763 97.2159 19.0165 97.2452 18.9866C97.2744 18.9567 97.3329 18.8969 97.3037 18.867C97.3329 18.7773 97.3622 18.7175 97.3914 18.6278C97.4207 18.5381 97.4791 18.4783 97.5084 18.4185C97.5376 18.3886 97.5376 18.3587 97.5376 18.3288C97.5669 18.2989 97.6546 18.1793 97.6254 18.1195C97.6839 17.9999 97.7716 17.8803 97.8301 17.7607C97.8594 17.671 97.8301 17.5215 97.9471 17.4916C97.9178 17.4617 97.9471 17.4617 97.9763 17.4318C98.0056 17.4019 97.9471 17.372 97.9471 17.3421V17.3122V17.2823C97.9471 17.2524 97.9763 17.2225 98.0056 17.2524C98.0348 17.2823 98.0056 17.372 98.0348 17.372C98.0933 17.4617 98.1518 17.372 98.1518 17.3421ZM97.0404 16.5049H97.0112L97.0697 16.5647C97.0697 16.5049 97.0697 16.4451 97.0404 16.5049ZM97.1574 16.6245V16.6544V16.6843C97.1574 16.7142 97.2159 16.6245 97.1574 16.6245ZM98.9707 18.7474C98.9415 18.7175 98.9707 18.6876 98.9415 18.6876L98.8537 18.7175C98.8245 18.7773 98.9707 18.867 98.9707 18.7474ZM99.3802 18.6278C99.3509 18.5082 99.3217 18.6577 99.2924 18.6577C99.3217 18.7175 99.3802 18.6876 99.3802 18.6278ZM96.8357 16.3853C96.865 16.4451 96.865 16.4152 96.865 16.3853C96.8942 16.2358 96.8357 16.2956 96.8357 16.3853ZM86.2484 7.8936L86.2777 7.8637L86.2484 7.8936ZM92.1563 5.74077L92.127 5.68097L92.1563 5.74077ZM84.6399 8.2823C84.6106 8.2524 84.5521 8.2524 84.5814 8.2823C84.6106 8.2524 84.6399 8.3122 84.6399 8.2823ZM84.6984 8.64111C84.6984 8.61121 84.6691 8.58131 84.6399 8.5514V8.61121C84.6399 8.64111 84.6984 8.67101 84.6984 8.64111ZM84.5229 8.61121C84.5229 8.58131 84.4936 8.55141 84.4936 8.58131C84.4644 8.64111 84.5229 8.64111 84.5229 8.61121ZM84.4936 8.1926H84.4644H84.4936ZM84.7861 8.58131C84.7276 8.61121 84.7861 8.61121 84.7861 8.58131V8.58131ZM84.8446 8.3122V8.2823V8.3122ZM84.8738 8.4318L84.8446 8.4019C84.8153 8.4617 84.8738 8.4617 84.8738 8.4318ZM86.0437 9.53812C86.0145 9.56802 86.073 9.53812 86.0437 9.53812V9.53812ZM96.4555 7.11619L96.4263 7.08629L96.4555 7.11619ZM92.244 5.50157C92.2732 5.50157 92.2732 5.50157 92.2732 5.47167L92.244 5.50157ZM96.397 7.08629H96.4263H96.3678H96.397ZM97.1574 10.7042L97.2159 10.764C97.2452 10.764 97.2159 10.7341 97.2159 10.7341L97.1867 10.7042L97.1574 10.6743V10.7042ZM84.4644 8.1627C84.4936 8.1328 84.4644 8.1029 84.4351 8.1328C84.3766 8.1627 84.4059 8.1926 84.4644 8.1627ZM90.4892 16.2657V16.2358V16.2657ZM90.4015 11.8404H90.3722H90.4015ZM90.3722 11.8404H90.343H90.3722ZM96.0168 17.1627C95.9876 17.1926 96.0461 17.2225 96.0168 17.1627V17.1627ZM90.5184 12.9169C90.4892 12.9169 90.5184 12.9767 90.5184 12.9169V12.9169ZM90.6062 12.1394L90.6647 12.0796C90.6647 12.0497 90.6062 12.0796 90.6062 12.0796L90.5769 12.1095L90.5477 12.1394C90.5477 12.1394 90.5769 12.1394 90.6062 12.1394ZM86.5701 10.5248C86.5701 10.4949 86.5117 10.4949 86.4824 10.4949C86.5117 10.5248 86.5701 10.5248 86.5701 10.5248ZM86.0145 9.68762H85.9852H86.0145ZM86.0437 9.59792L86.0145 9.62782C86.0437 9.62782 86.0437 9.62782 86.0437 9.59792Z" fill="white"/>
<path d="M156.733 9.80728C156.733 9.77738 156.762 9.74748 156.791 9.74748H156.967C157.172 9.74748 157.318 9.83718 157.318 10.0465C157.318 10.2259 157.172 10.3455 157.025 10.3455H156.821C156.791 10.3455 156.762 10.3156 156.762 10.2857V9.80728H156.733ZM156.587 9.53818C156.557 9.53818 156.47 9.56808 156.47 9.65778V11.1528C156.47 11.1827 156.47 11.2126 156.499 11.2126H156.645C156.674 11.2126 156.674 11.1827 156.674 11.1528V10.5847C156.674 10.5249 156.704 10.495 156.733 10.495H156.791C157.113 10.495 157.201 10.5847 157.259 11.093C157.259 11.1827 157.318 11.2425 157.376 11.2425H157.493C157.552 11.2425 157.581 11.2425 157.581 11.2126C157.581 11.1827 157.552 11.1827 157.552 11.1229C157.523 11.0631 157.464 10.6146 157.376 10.5249C157.318 10.4352 157.23 10.4352 157.23 10.4352C157.23 10.3754 157.523 10.4053 157.523 9.98668C157.523 9.65778 157.23 9.53818 156.938 9.53818H156.587ZM157.025 9.08967C157.669 9.08967 158.137 9.62788 158.137 10.3455C158.137 10.9435 157.727 11.6013 157.025 11.6013C156.44 11.6013 155.856 11.1528 155.856 10.3754C155.856 9.53818 156.47 9.08967 157.025 9.08967ZM156.996 8.88037C156.382 8.88037 155.563 9.35878 155.563 10.4352C155.563 11.0033 156.031 11.8405 156.967 11.8405C157.874 11.8405 158.4 11.1528 158.4 10.3754C158.4 9.56808 157.786 8.88037 156.996 8.88037Z" fill="#231F20"/>
</g>
<defs>
<clipPath id="clip0_66_39">
<rect width="158.4" height="36" fill="white"/>
</clipPath>
</defs>
</svg>
