<svg width="24" height="24" viewBox="0 0 24 24" fill="none" xmlns="http://www.w3.org/2000/svg">
<path fill-rule="evenodd" clip-rule="evenodd" d="M20 2H6.5C5.83696 2 5.20107 2.26339 4.73223 2.73223C4.26339 3.20107 4 3.83696 4 4.5V17.0505C4.00833 17.042 4.0167 17.0335 4.02513 17.0251C4.6815 16.3687 5.57174 16 6.5 16H20V2ZM20 18H6.5C6.10218 18 5.72064 18.158 5.43934 18.4393C5.15804 18.7206 5 19.1022 5 19.5C5 19.9838 4.65649 20.3873 4.20008 20.48C4.32426 20.7714 4.50388 21.0394 4.73223 21.2678C5.20107 21.7366 5.83696 22 6.5 22H20V18Z"  fill="currentColor"/>
</svg>
