<svg width="24" height="24" viewBox="0 0 24 24" fill="none" xmlns="http://www.w3.org/2000/svg">
<path d="M21 8C20.798 8 16.15 8.029 12 10.008C7.85 8.029 3.202 8 3 8C2.73478 8 2.48043 8.10536 2.29289 8.29289C2.10536 8.48043 2 8.73478 2 9V18.883C2 19.0172 2.02701 19.15 2.0794 19.2735C2.1318 19.397 2.20852 19.5087 2.305 19.602C2.5 19.79 2.785 19.907 3.034 19.882L3.161 19.881C3.844 19.881 7.457 19.979 11.577 21.906C11.593 21.914 11.611 21.911 11.627 21.917C11.746 21.966 11.871 22 12 22C12.129 22 12.254 21.966 12.374 21.917C12.39 21.911 12.408 21.914 12.424 21.906C16.544 19.978 20.157 19.881 20.84 19.881L20.967 19.882C21.205 19.907 21.5 19.79 21.696 19.602C21.89 19.413 22 19.153 22 18.883V9C22 8.73478 21.8946 8.48043 21.7071 8.29289C21.5196 8.10536 21.2652 8 21 8ZM4 10.049C5.485 10.16 8.381 10.529 11 11.741V19.483C8 18.308 5.41 17.989 4 17.907V10.049ZM20 17.907C18.59 17.989 16 18.308 13 19.483V11.741C15.619 10.529 18.515 10.16 20 10.049V17.907Z" fill="black"/>
<path d="M12 8C13.6569 8 15 6.65685 15 5C15 3.34315 13.6569 2 12 2C10.3431 2 9 3.34315 9 5C9 6.65685 10.3431 8 12 8Z" fill="black"/>
</svg>
