<svg width="40" height="40" viewBox="0 0 40 40" fill="none" xmlns="http://www.w3.org/2000/svg">
<path d="M32 31C32 32.1046 31.1046 33 30 33H10C8.89543 33 8 32.1046 8 31V30.8333C8 29.7288 8.89543 28.8333 10 28.8333H30C31.1046 28.8333 32 29.7288 32 30.8333V31ZM32 20.5833C32 21.6879 31.1046 22.5833 30 22.5833H10C8.89543 22.5833 8 21.6879 8 20.5833V20.4167C8 19.3121 8.89543 18.4167 10 18.4167H30C31.1046 18.4167 32 19.3121 32 20.4167V20.5833ZM32 10.1667C32 11.2712 31.1046 12.1667 30 12.1667H10C8.89543 12.1667 8 11.2712 8 10.1667V10C8 8.89543 8.89543 8 10 8H30C31.1046 8 32 8.89543 32 10V10.1667Z" fill="#3C3C45"/>
</svg>
