<svg width="17" height="16" viewBox="0 0 17 16" fill="none" xmlns="http://www.w3.org/2000/svg">
<path d="M7.77022 16C7.59541 16 7.42777 15.9064 7.30416 15.7397C7.18055 15.573 7.11111 15.3469 7.11111 15.1111V8.88889H0.659108C0.484301 8.88889 0.316655 8.79524 0.193048 8.62854C0.0694415 8.46184 0 8.23575 0 8C0 7.76425 0.0694415 7.53816 0.193048 7.37146C0.316655 7.20476 0.484301 7.11111 0.659108 7.11111H7.11111V0.888889C7.11111 0.653141 7.18055 0.427049 7.30416 0.26035C7.42777 0.0936505 7.59541 0 7.77022 0L8.23159 0C8.4064 0 8.57405 0.0936505 8.69765 0.26035C8.82126 0.427049 8.8907 0.653141 8.8907 0.888889V7.11111H15.3427C15.5175 7.11111 15.6852 7.20476 15.8088 7.37146C15.9324 7.53816 16.0018 7.76425 16.0018 8C16.0018 8.23575 15.9324 8.46184 15.8088 8.62854C15.6852 8.79524 15.5175 8.88889 15.3427 8.88889H8.88938V15.1111C8.88938 15.3469 8.81994 15.573 8.69633 15.7397C8.57273 15.9064 8.40508 16 8.23028 16H7.77022Z" fill="#1A1A1A"/>
</svg>
