<svg width="24" height="24" viewBox="0 0 24 24" fill="none" xmlns="http://www.w3.org/2000/svg">
<path fill-rule="evenodd" clip-rule="evenodd" d="M10.4651 2.85472C10.6352 2.34429 11.1129 2 11.6509 2H12.3491C12.8871 2 13.3648 2.34429 13.5349 2.85472L14.1918 4.82533C14.6562 4.96703 15.1016 5.15261 15.5229 5.37721L17.3814 4.44799C17.8626 4.20738 18.4438 4.30169 18.8243 4.68214L19.3179 5.17578C19.6983 5.55623 19.7927 6.13744 19.552 6.61868L18.6228 8.47713C18.8474 8.89848 19.033 9.34379 19.1747 9.80822L21.1453 10.4651C21.6557 10.6352 22 11.1129 22 11.6509V12.3491C22 12.8871 21.6557 13.3648 21.1453 13.5349L19.1747 14.1918C19.033 14.6562 18.8474 15.1015 18.6228 15.5229L19.552 17.3813C19.7927 17.8626 19.6983 18.4438 19.3179 18.8242L18.8243 19.3179C18.4438 19.6983 17.8626 19.7926 17.3814 19.552L15.5229 18.6228C15.1016 18.8474 14.6562 19.033 14.1918 19.1747L13.5349 21.1453C13.3648 21.6557 12.8871 22 12.3491 22H11.6509C11.1129 22 10.6352 21.6557 10.4651 21.1453L9.80822 19.1747C9.34379 19.033 8.89849 18.8474 8.47715 18.6228L6.61864 19.5521C6.1374 19.7927 5.55619 19.6984 5.17574 19.3179L4.68211 18.8243C4.30166 18.4438 4.20734 17.8626 4.44796 17.3814L5.3772 15.5229C5.1526 15.1015 4.96703 14.6562 4.82533 14.1918L2.85472 13.5349C2.34429 13.3648 2 12.8871 2 12.3491V11.6509C2 11.1129 2.34429 10.6352 2.85472 10.4651L4.82533 9.80822C4.96703 9.34377 5.1526 8.89845 5.37721 8.47709L4.44796 6.6186C4.20734 6.13737 4.30166 5.55615 4.68211 5.1757L5.17574 4.68207C5.55619 4.30162 6.13741 4.2073 6.61864 4.44792L8.47715 5.37717C8.8985 5.15258 9.34379 4.96703 9.80822 4.82533L10.4651 2.85472ZM12 17C14.7614 17 17 14.7614 17 12C17 9.23858 14.7614 7 12 7C9.23858 7 7 9.23858 7 12C7 14.7614 9.23858 17 12 17Z" fill="black"/>
</svg>
